<svg width="50" height="50" viewBox="0 0 50 50" fill="none" xmlns="http://www.w3.org/2000/svg">
<path d="M10.4166 6.25006L10.4166 43.7501C10.4178 44.1297 10.5225 44.5019 10.7194 44.8265C10.9164 45.1511 11.1982 45.4158 11.5344 45.5921C11.8706 45.7685 12.2486 45.8498 12.6276 45.8274C13.0066 45.8049 13.3723 45.6795 13.6853 45.4646L40.7687 26.7146C41.8916 25.9376 41.8916 24.0667 40.7687 23.2876L13.6853 4.53756C13.3729 4.32052 13.0071 4.19325 12.6274 4.16957C12.2478 4.14588 11.8689 4.22669 11.532 4.40321C11.195 4.57973 10.9129 4.84521 10.7163 5.17081C10.5196 5.49642 10.416 5.86968 10.4166 6.25006Z" fill="black"/>
</svg>
